# Asura Explorer export — Strippedloc_donut
mtllib loc_donut.mtl
v -0.041992 0.073242 0.113281
v -0.086914 0.151367 0.137695
v -0.073242 0.041992 0.113281
v -0.151367 0.086914 0.137695
v -0.099609 0.172852 0.097656
v -0.172852 0.099609 0.097656
v -0.084961 -0.000000 0.113281
v -0.174805 -0.000000 0.137695
v -0.199219 -0.000000 0.097656
v -0.073242 -0.041992 0.113281
v -0.151367 -0.086914 0.137695
v -0.172852 -0.099609 0.097656
v -0.041992 -0.073242 0.113281
v -0.086914 -0.151367 0.137695
v -0.099609 -0.172852 0.097656
v 0.000000 -0.084961 0.113281
v 0.000000 -0.174805 0.137695
v 0.000000 -0.199219 0.097656
v 0.099609 -0.172852 0.097656
v 0.086914 -0.151367 0.137695
v 0.041992 -0.073242 0.113281
v 0.172852 -0.099609 0.097656
v 0.151367 -0.086914 0.137695
v 0.073242 -0.041992 0.113281
v 0.199219 -0.000000 0.097656
v 0.174805 -0.000000 0.137695
v 0.084961 -0.000000 0.113281
v 0.172852 0.099609 0.097656
v 0.151367 0.086914 0.137695
v 0.073242 0.041992 0.113281
v 0.099609 0.172852 0.097656
v 0.086914 0.151367 0.137695
v 0.041992 0.073242 0.113281
v 0.000000 0.199219 0.097656
v 0.000000 0.174805 0.137695
v 0.000000 0.084961 0.113281
v 0.000000 0.199219 0.097656
v 0.000000 0.199219 0.044922
v -0.099609 0.172852 0.097656
v -0.099609 0.172852 0.044922
v -0.172852 0.099609 0.097656
v -0.172852 0.099609 0.044922
v -0.151367 0.086914 -0.000000
v -0.086914 0.151367 -0.000000
v -0.085938 0.049805 0.022461
v -0.049805 0.085938 0.022461
v -0.073242 0.041992 0.113281
v -0.041992 0.073242 0.113281
v 0.000000 0.084961 0.113281
v 0.000000 0.099609 0.022461
v 0.000000 0.174805 -0.000000
v -0.199219 -0.000000 0.097656
v -0.199219 -0.000000 0.044922
v -0.174805 -0.000000 -0.000000
v -0.099609 -0.000000 0.022461
v -0.084961 -0.000000 0.113281
v 0.041992 0.073242 0.113281
v 0.049805 0.085938 0.022461
v 0.086914 0.151367 -0.000000
v 0.099609 0.172852 0.044922
v 0.099609 0.172852 0.097656
v 0.073242 0.041992 0.113281
v 0.085938 0.049805 0.022461
v 0.151367 0.086914 -0.000000
v 0.172852 0.099609 0.044922
v 0.172852 0.099609 0.097656
v 0.172852 0.099609 0.044922
v 0.199219 -0.000000 0.044922
v 0.151367 0.086914 -0.000000
v 0.174805 -0.000000 -0.000000
v 0.085938 0.049805 0.022461
v 0.099609 -0.000000 0.022461
v 0.073242 0.041992 0.113281
v 0.084961 -0.000000 0.113281
v 0.172852 -0.099609 0.044922
v 0.151367 -0.086914 -0.000000
v 0.085938 -0.049805 0.022461
v 0.073242 -0.041992 0.113281
v 0.099609 -0.172852 0.044922
v 0.086914 -0.151367 -0.000000
v 0.049805 -0.085938 0.022461
v 0.041992 -0.073242 0.113281
v 0.000000 -0.084961 0.113281
v 0.000000 -0.099609 0.022461
v 0.000000 -0.174805 -0.000000
v 0.000000 -0.199219 0.044922
v -0.041992 -0.073242 0.113281
v -0.049805 -0.085938 0.022461
v -0.086914 -0.151367 -0.000000
v -0.099609 -0.172852 0.044922
v -0.099609 -0.172852 0.097656
v 0.000000 -0.199219 0.097656
v -0.073242 -0.041992 0.113281
v -0.085938 -0.049805 0.022461
v -0.151367 -0.086914 -0.000000
v -0.172852 -0.099609 0.044922
v -0.172852 -0.099609 0.097656
v -0.084961 -0.000000 0.113281
v -0.099609 -0.000000 0.022461
v -0.174805 -0.000000 -0.000000
v -0.199219 -0.000000 0.044922
v -0.199219 -0.000000 0.097656
v 0.099609 -0.172852 0.097656
v 0.172852 -0.099609 0.097656
v 0.199219 -0.000000 0.097656
v 0.172852 0.099609 0.097656
vt 0.393555 0.684570
vt 0.281250 0.878906
vt 0.315430 0.606445
vt 0.121094 0.719727
vt 0.250000 0.933594
vt 0.066406 0.750977
vt 0.287109 0.500000
vt 0.061523 0.500000
vt 0.000000 0.500000
vt 0.315430 0.394531
vt 0.121094 0.281250
vt 0.066406 0.250000
vt 0.393555 0.316406
vt 0.280273 0.122070
vt 0.249023 0.067383
vt 0.500000 0.288086
vt 0.499023 0.062500
vt 0.500000 0.000000
vt 0.749023 0.067383
vt 0.717773 0.122070
vt 0.605469 0.316406
vt 0.932617 0.250000
vt 0.877930 0.281250
vt 0.683594 0.394531
vt 0.999023 0.500000
vt 0.936523 0.500000
vt 0.711914 0.500000
vt 0.932617 0.750000
vt 0.877930 0.718750
vt 0.683594 0.606445
vt 0.750000 0.933594
vt 0.718750 0.878906
vt 0.605469 0.684570
vt 0.500000 1.000000
vt 0.500000 0.937500
vt 0.500000 0.712891
vt 0.501953 0.471680
vt 0.501953 0.469727
vt 0.514648 0.473633
vt 0.514648 0.472656
vt 0.524414 0.481445
vt 0.525391 0.480469
vt 0.520508 0.484375
vt 0.512695 0.478516
vt 0.512695 0.490234
vt 0.507812 0.487305
vt 0.511719 0.491211
vt 0.506836 0.488281
vt 0.501953 0.487305
vt 0.501953 0.485352
vt 0.501953 0.475586
vt 0.529297 0.493164
vt 0.531250 0.492188
vt 0.525391 0.494141
vt 0.515625 0.496094
vt 0.513672 0.496094
vt 0.497070 0.488281
vt 0.496094 0.487305
vt 0.491211 0.478516
vt 0.489258 0.472656
vt 0.489258 0.473633
vt 0.492188 0.491211
vt 0.491211 0.490234
vt 0.483398 0.484375
vt 0.478516 0.480469
vt 0.479492 0.481445
vt 0.472656 0.492188
vt 0.472656 0.505859
vt 0.478516 0.494141
vt 0.478516 0.503906
vt 0.488281 0.496094
vt 0.488281 0.501953
vt 0.490234 0.496094
vt 0.490234 0.501953
vt 0.478516 0.517578
vt 0.483398 0.513672
vt 0.491211 0.507812
vt 0.492188 0.506836
vt 0.489258 0.525391
vt 0.491211 0.519531
vt 0.496094 0.510742
vt 0.497070 0.509766
vt 0.501953 0.510742
vt 0.501953 0.512695
vt 0.501953 0.522461
vt 0.501953 0.528320
vt 0.506836 0.509766
vt 0.507812 0.510742
vt 0.512695 0.519531
vt 0.514648 0.525391
vt 0.514648 0.524414
vt 0.501953 0.526367
vt 0.511719 0.506836
vt 0.512695 0.507812
vt 0.520508 0.513672
vt 0.525391 0.517578
vt 0.524414 0.516602
vt 0.513672 0.501953
vt 0.515625 0.501953
vt 0.525391 0.503906
vt 0.531250 0.505859
vt 0.529297 0.504883
vt 0.489258 0.524414
vt 0.479492 0.516602
vt 0.474609 0.504883
vt 0.474609 0.493164
vn 0.401098 -0.839571 0.366388
vn -0.106295 0.114544 0.987715
vn 0.544148 -0.366324 0.754791
vn -0.269483 0.103029 0.957478
vn -0.409633 0.876931 0.251381
vn -0.831560 0.511995 0.215336
vn 0.772084 -0.031662 0.634731
vn -0.212014 -0.050093 0.975982
vn -0.968105 -0.016079 0.250027
vn 0.680547 0.363599 0.636123
vn -0.157882 -0.148543 0.976221
vn -0.829595 -0.498287 0.251955
vn 0.414996 0.652447 0.634106
vn -0.061581 -0.206631 0.976479
vn -0.468328 -0.846092 0.254553
vn 0.031662 0.772084 0.634731
vn 0.050093 -0.212014 0.975982
vn -0.040663 -0.951627 0.304554
vn 0.409633 -0.876931 0.251381
vn 0.148543 -0.157882 0.976221
vn -0.363599 0.680547 0.636123
vn 0.793332 -0.553526 0.253442
vn 0.206631 -0.061581 0.976479
vn -0.652447 0.414996 0.634106
vn 0.964924 -0.082572 0.249205
vn 0.212014 0.050093 0.975982
vn -0.772084 0.031662 0.634731
vn 0.860017 0.463556 0.213275
vn 0.157882 0.148543 0.976221
vn -0.680547 -0.363599 0.636123
vn 0.468328 0.846092 0.254553
vn 0.061581 0.206631 0.976479
vn -0.414996 -0.652447 0.634106
vn 0.040663 0.951627 0.304554
vn -0.050093 0.212014 0.975982
vn -0.031662 -0.772084 0.634731
vn 0.040663 0.951627 0.304554
vn -0.030428 0.978680 -0.203124
vn -0.409633 0.876931 0.251381
vn -0.555063 0.795890 -0.241795
vn -0.831560 0.511995 0.215336
vn -0.849496 0.440615 -0.290198
vn -0.223539 0.198898 -0.954185
vn -0.094589 0.284650 -0.953954
vn 0.637707 -0.346731 -0.687828
vn 0.383267 -0.618128 -0.686312
vn 0.544148 -0.366324 0.754791
vn 0.401098 -0.839571 0.366388
vn -0.031662 -0.772084 0.634731
vn 0.022911 -0.726229 -0.687071
vn 0.060399 0.294006 -0.953893
vn -0.968105 -0.016079 0.250027
vn -0.971064 0.011456 -0.238544
vn -0.294006 0.060399 -0.953893
vn 0.726229 0.022911 -0.687071
vn 0.772084 -0.031662 0.634731
vn -0.414996 -0.652447 0.634106
vn -0.346731 -0.637707 -0.687828
vn 0.198898 0.223539 -0.954185
vn 0.495786 0.834508 -0.240403
vn 0.468328 0.846092 0.254553
vn -0.680547 -0.363599 0.636123
vn -0.618128 -0.383267 -0.686312
vn 0.284650 0.094589 -0.953954
vn 0.806002 0.514481 -0.292693
vn 0.860017 0.463556 0.213275
vn 0.806002 0.514481 -0.292693
vn 0.967806 0.082646 -0.237744
vn 0.284650 0.094589 -0.953954
vn 0.294006 -0.060399 -0.953893
vn -0.618128 -0.383267 -0.686312
vn -0.726229 -0.022911 -0.687071
vn -0.680547 -0.363599 0.636123
vn -0.772084 0.031662 0.634731
vn 0.879475 -0.411103 -0.239828
vn 0.223539 -0.198898 -0.954185
vn -0.637707 0.346731 -0.687828
vn -0.652447 0.414996 0.634106
vn 0.555063 -0.795890 -0.241795
vn 0.094589 -0.284650 -0.953954
vn -0.383267 0.618128 -0.686312
vn -0.363599 0.680547 0.636123
vn 0.031662 0.772084 0.634731
vn -0.022911 0.726229 -0.687071
vn -0.060399 -0.294006 -0.953893
vn 0.030428 -0.978680 -0.203124
vn 0.414996 0.652447 0.634106
vn 0.346731 0.637707 -0.687828
vn -0.198898 -0.223539 -0.954185
vn -0.495786 -0.834508 -0.240403
vn -0.468328 -0.846092 0.254553
vn -0.040663 -0.951627 0.304554
vn 0.680547 0.363599 0.636123
vn 0.618128 0.383267 -0.686312
vn -0.284650 -0.094589 -0.953954
vn -0.846420 -0.473912 -0.242861
vn -0.829595 -0.498287 0.251955
vn 0.772084 -0.031662 0.634731
vn 0.726229 0.022911 -0.687071
vn -0.294006 0.060399 -0.953893
vn -0.971064 0.011456 -0.238544
vn -0.968105 -0.016079 0.250027
vn 0.409633 -0.876931 0.251381
vn 0.793332 -0.553526 0.253442
vn 0.964924 -0.082572 0.249205
vn 0.860017 0.463556 0.213275
usemtl loc_donut_body
f 1/1/1 2/2/2 3/3/3
f 2/2/2 4/4/4 3/3/3
f 5/5/5 6/6/6 2/2/2
f 6/6/6 4/4/4 2/2/2
f 7/7/7 3/3/3 8/8/8
f 3/3/3 4/4/4 8/8/8
f 8/8/8 4/4/4 9/9/9
f 4/4/4 6/6/6 9/9/9
f 10/10/10 7/7/7 11/11/11
f 7/7/7 8/8/8 11/11/11
f 11/11/11 8/8/8 12/12/12
f 8/8/8 9/9/9 12/12/12
f 13/13/13 10/10/10 14/14/14
f 10/10/10 11/11/11 14/14/14
f 14/14/14 11/11/11 15/15/15
f 11/11/11 12/12/12 15/15/15
f 16/16/16 13/13/13 17/17/17
f 13/13/13 14/14/14 17/17/17
f 17/17/17 14/14/14 18/18/18
f 14/14/14 15/15/15 18/18/18
f 18/18/18 19/19/19 17/17/17
f 19/19/19 20/20/20 17/17/17
f 17/17/17 20/20/20 16/16/16
f 20/20/20 21/21/21 16/16/16
f 19/19/19 22/22/22 20/20/20
f 22/22/22 23/23/23 20/20/20
f 20/20/20 23/23/23 21/21/21
f 23/23/23 24/24/24 21/21/21
f 22/22/22 25/25/25 23/23/23
f 25/25/25 26/26/26 23/23/23
f 23/23/23 26/26/26 24/24/24
f 26/26/26 27/27/27 24/24/24
f 25/25/25 28/28/28 26/26/26
f 28/28/28 29/29/29 26/26/26
f 26/26/26 29/29/29 27/27/27
f 29/29/29 30/30/30 27/27/27
f 28/28/28 31/31/31 29/29/29
f 31/31/31 32/32/32 29/29/29
f 29/29/29 32/32/32 30/30/30
f 32/32/32 33/33/33 30/30/30
f 31/31/31 34/34/34 32/32/32
f 34/34/34 35/35/35 32/32/32
f 32/32/32 35/35/35 33/33/33
f 35/35/35 36/36/36 33/33/33
f 34/34/34 5/5/5 35/35/35
f 5/5/5 2/2/2 35/35/35
f 35/35/35 2/2/2 36/36/36
f 2/2/2 1/1/1 36/36/36
f 37/37/37 38/38/38 39/39/39
f 38/38/38 40/40/40 39/39/39
f 39/39/39 40/40/40 41/41/41
f 40/40/40 42/42/42 41/41/41
f 42/42/42 40/40/40 43/43/43
f 40/40/40 44/44/44 43/43/43
f 43/43/43 44/44/44 45/45/45
f 44/44/44 46/46/46 45/45/45
f 45/45/45 46/46/46 47/47/47
f 46/46/46 48/48/48 47/47/47
f 49/49/49 48/48/48 50/50/50
f 48/48/48 46/46/46 50/50/50
f 50/50/50 46/46/46 51/51/51
f 46/46/46 44/44/44 51/51/51
f 51/51/51 44/44/44 38/38/38
f 44/44/44 40/40/40 38/38/38
f 52/52/52 41/41/41 53/53/53
f 41/41/41 42/42/42 53/53/53
f 53/53/53 42/42/42 54/54/54
f 42/42/42 43/43/43 54/54/54
f 54/54/54 43/43/43 55/55/55
f 43/43/43 45/45/45 55/55/55
f 55/55/55 45/45/45 56/56/56
f 45/45/45 47/47/47 56/56/56
f 57/57/57 49/49/49 58/58/58
f 49/49/49 50/50/50 58/58/58
f 58/58/58 50/50/50 59/59/59
f 50/50/50 51/51/51 59/59/59
f 59/59/59 51/51/51 60/60/60
f 51/51/51 38/38/38 60/60/60
f 60/60/60 38/38/38 61/61/61
f 38/38/38 37/37/37 61/61/61
f 62/62/62 57/57/57 63/63/63
f 57/57/57 58/58/58 63/63/63
f 63/63/63 58/58/58 64/64/64
f 58/58/58 59/59/59 64/64/64
f 64/64/64 59/59/59 65/65/65
f 59/59/59 60/60/60 65/65/65
f 65/65/65 60/60/60 66/66/66
f 60/60/60 61/61/61 66/66/66
f 67/67/67 68/68/68 69/69/69
f 68/68/68 70/70/70 69/69/69
f 69/69/69 70/70/70 71/71/71
f 70/70/70 72/72/72 71/71/71
f 71/71/71 72/72/72 73/73/73
f 72/72/72 74/74/74 73/73/73
f 68/68/68 75/75/75 70/70/70
f 75/75/75 76/76/76 70/70/70
f 70/70/70 76/76/76 72/72/72
f 76/76/76 77/77/77 72/72/72
f 72/72/72 77/77/77 74/74/74
f 77/77/77 78/78/78 74/74/74
f 75/75/75 79/79/79 76/76/76
f 79/79/79 80/80/80 76/76/76
f 76/76/76 80/80/80 77/77/77
f 80/80/80 81/81/81 77/77/77
f 77/77/77 81/81/81 78/78/78
f 81/81/81 82/82/82 78/78/78
f 83/83/83 82/82/82 84/84/84
f 82/82/82 81/81/81 84/84/84
f 84/84/84 81/81/81 85/85/85
f 81/81/81 80/80/80 85/85/85
f 85/85/85 80/80/80 86/86/86
f 80/80/80 79/79/79 86/86/86
f 87/87/87 83/83/83 88/88/88
f 83/83/83 84/84/84 88/88/88
f 88/88/88 84/84/84 89/89/89
f 84/84/84 85/85/85 89/89/89
f 89/89/89 85/85/85 90/90/90
f 85/85/85 86/86/86 90/90/90
f 90/90/90 86/86/86 91/91/91
f 86/86/86 92/92/92 91/91/91
f 93/93/93 87/87/87 94/94/94
f 87/87/87 88/88/88 94/94/94
f 94/94/94 88/88/88 95/95/95
f 88/88/88 89/89/89 95/95/95
f 95/95/95 89/89/89 96/96/96
f 89/89/89 90/90/90 96/96/96
f 96/96/96 90/90/90 97/97/97
f 90/90/90 91/91/91 97/97/97
f 98/98/98 93/93/93 99/99/99
f 93/93/93 94/94/94 99/99/99
f 99/99/99 94/94/94 100/100/100
f 94/94/94 95/95/95 100/100/100
f 100/100/100 95/95/95 101/101/101
f 95/95/95 96/96/96 101/101/101
f 101/101/101 96/96/96 102/102/102
f 96/96/96 97/97/97 102/102/102
f 92/92/92 86/86/86 103/103/103
f 86/86/86 79/79/79 103/103/103
f 103/103/103 79/79/79 104/104/104
f 79/79/79 75/75/75 104/104/104
f 104/104/104 75/75/75 105/105/105
f 75/75/75 68/68/68 105/105/105
f 105/105/105 68/68/68 106/106/106
f 68/68/68 67/67/67 106/106/106
